# File created by Blade
# Date/Time:  Wed Apr 08 17:17:01 2015
# Frame Rate: 120.000 fps
#------------------------------------------------------
:FULLY-SPECIFIED
:DEGREES
1563
root 4.488001 36.090637 -1.018947 314.067462 -87.842713 -320.702937
Spine 10.485095 4.791856 -5.876769
Head 12.265193 16.584545 1.099074
LeftShoulder -9.364194 11.779334 22.613622
LeftArm 14.750047 -30.087610 -39.895734
LeftForeArm 20.540505 0.000000 27.087452
LeftHand -11.608570 -0.000000 -15.196741
LeftHandThumb1 -26.253704 0.000000 33.147579
RightShoulder -26.000186 -41.464874 -5.148739
RightArm 51.117364 35.284515 59.190288
RightForeArm 6.892154 -0.000000 14.924911
RightHand -2.749141 -0.000000 8.245403
RightHandThumb1 -24.326973 -0.000000 -32.862282
LeftUpLeg 11.151502 7.326297 5.552111
LeftLeg 9.774542 -0.000000 -0.000000
LeftFoot -12.326627 -2.631016 -15.826315
LeftToeBase 6.804097 -0.000000 -0.000000
RightUpLeg 16.578244 -12.442038 -12.323275
RightLeg 2.087507 -0.000000 -0.000000
RightFoot -9.003345 -0.528681 21.502351
RightToeBase 7.295158 -0.000000 -0.000000
1564
root 4.510359 36.086218 -1.127975 317.376458 -87.764030 -324.026775
Spine 10.561353 4.636418 -5.775737
Head 12.070221 16.866070 0.923941
LeftShoulder -9.357004 11.768320 22.751010
LeftArm 14.622720 -30.442031 -39.428214
LeftForeArm 20.538538 -0.000000 26.747382
LeftHand -11.541688 -0.000000 -15.389721
LeftHandThumb1 -26.253704 0.000000 33.147579
RightShoulder -25.852318 -41.358580 -5.455757
RightArm 51.119038 35.878657 58.824033
RightForeArm 7.075829 -0.000000 14.716455
RightHand -2.774338 0.000000 7.965464
RightHandThumb1 -24.326973 -0.000000 -32.862282
LeftUpLeg 11.095579 7.201093 5.750810
LeftLeg 9.761447 -0.000000 -0.000000
LeftFoot -12.449819 -2.504936 -16.117074
LeftToeBase 6.694583 -0.000000 -0.000000
RightUpLeg 16.588084 -12.574466 -12.076145
RightLeg 2.113952 -0.000000 -0.000000
RightFoot -9.251875 -0.626261 21.362695
RightToeBase 7.478912 -0.000000 -0.000000
1565
root 4.535099 36.079324 -1.231820 320.779216 -87.668218 -327.427424
Spine 10.631566 4.496278 -5.658448
Head 11.849335 17.094416 0.755128
LeftShoulder -9.306746 11.710231 22.897333
LeftArm 14.448134 -30.733911 -38.920263
LeftForeArm 20.520999 -0.000000 26.395315
LeftHand -11.523372 -0.000000 -15.473933
LeftHandThumb1 -26.253704 0.000000 33.147579
RightShoulder -25.754710 -41.240167 -5.746718
RightArm 51.161216 36.486230 58.523548
RightForeArm 7.109430 -0.000000 14.442741
RightHand -2.722320 -0.000000 7.863364
RightHandThumb1 -24.326973 -0.000000 -32.862282
LeftUpLeg 11.078196 6.861192 5.898651
LeftLeg 9.620240 -0.000000 -0.000000
LeftFoot -12.557120 -2.301587 -16.531886
LeftToeBase 6.034190 -0.000000 -0.000000
RightUpLeg 16.590466 -12.802288 -11.851176
RightLeg 2.125359 -0.000000 -0.000000
RightFoot -9.466751 -0.668257 21.205527
RightToeBase 7.623498 -0.000000 -0.000000
1566
root 4.559808 36.070191 -1.334439 324.118918 -87.537413 -330.766777
Spine 10.705914 4.325857 -5.567333
Head 11.636844 17.307261 0.647489
LeftShoulder -9.230178 11.555667 23.113023
LeftArm 14.197583 -30.998919 -38.433092
LeftForeArm 20.543715 0.000000 26.014207
LeftHand -11.550367 -0.000000 -15.429960
LeftHandThumb1 -26.253704 0.000000 33.147579
RightShoulder -25.645305 -41.154599 -6.020528
RightArm 51.191815 37.121886 58.266787
RightForeArm 7.197407 -0.000000 14.230327
RightHand -2.681413 0.000000 7.763388
RightHandThumb1 -24.326973 -0.000000 -32.862282
LeftUpLeg 11.037650 6.525444 6.043149
LeftLeg 9.532630 -0.000000 -0.000000
LeftFoot -12.723337 -2.128599 -16.902426
LeftToeBase 4.951453 -0.000000 -0.000000
RightUpLeg 16.611611 -13.110781 -11.648075
RightLeg 2.127540 -0.000000 -0.000000
RightFoot -9.691684 -0.706438 20.945495
RightToeBase 7.794262 -0.000000 -0.000000
1567
root 4.586624 36.059497 -1.432059 326.741781 -87.364097 -333.376919
Spine 10.759250 4.140524 -5.513046
Head 11.454847 17.437103 0.564994
LeftShoulder -9.174607 11.472678 23.306742
LeftArm 14.091106 -31.328377 -37.996999
LeftForeArm 20.589486 -0.000000 25.540265
LeftHand -11.529471 -0.000000 -15.405441
LeftHandThumb1 -26.253704 0.000000 33.147579
RightShoulder -25.566055 -41.108147 -6.269674
RightArm 51.298299 37.735936 58.056524
RightForeArm 7.223377 -0.000000 13.966689
RightHand -2.626417 -0.000000 7.463447
RightHandThumb1 -24.326973 -0.000000 -32.862282
LeftUpLeg 10.970996 6.124231 6.132031
LeftLeg 9.460976 -0.000000 -0.000000
LeftFoot -12.914192 -1.919822 -17.269210
LeftToeBase 3.800432 -0.000000 -0.000000
RightUpLeg 16.632911 -13.402424 -11.476041
RightLeg 2.103846 -0.000000 -0.000000
RightFoot -9.920594 -0.760265 20.739556
RightToeBase 7.918727 -0.000000 -0.000000
1568
root 4.614784 36.047638 -1.526118 328.865151 -87.186957 -335.473013
Spine 10.806411 3.994156 -5.456364
Head 11.251705 17.532239 0.483803
LeftShoulder -9.103953 11.366430 23.471480
LeftArm 14.080964 -31.780735 -37.605778
LeftForeArm 20.732187 0.000000 24.979937
LeftHand -11.560729 -0.000000 -15.380489
LeftHandThumb1 -26.253704 0.000000 33.147579
RightShoulder -25.530664 -40.994476 -6.533701
RightArm 51.286271 38.248936 57.776603
RightForeArm 7.213208 -0.000000 13.736144
RightHand -2.659480 -0.000000 7.174067
RightHandThumb1 -24.326973 -0.000000 -32.862282
LeftUpLeg 10.892124 5.758155 6.216179
LeftLeg 9.387606 -0.000000 -0.000000
LeftFoot -13.107946 -1.693181 -17.504496
LeftToeBase 2.635058 -0.000000 -0.000000
RightUpLeg 16.636339 -13.638109 -11.298277
RightLeg 2.078645 -0.000000 -0.000000
RightFoot -10.188844 -0.855676 20.520715
RightToeBase 8.151178 -0.000000 -0.000000
1569
root 4.643557 36.034730 -1.616743 330.420931 -86.981320 -336.990554
Spine 10.839968 3.876176 -5.437682
Head 11.052564 17.558300 0.438555
LeftShoulder -8.964047 11.165827 23.677004
LeftArm 13.948071 -32.121560 -37.151418
LeftForeArm 20.824552 -0.000000 24.458244
LeftHand -11.681277 0.000000 -15.242132
LeftHandThumb1 -26.253704 0.000000 33.147579
RightShoulder -25.481313 -40.845033 -6.800557
RightArm 51.116826 38.715685 57.400083
RightForeArm 7.311705 -0.000000 13.519113
RightHand -2.715478 -0.000000 6.754660
RightHandThumb1 -24.326973 -0.000000 -32.862282
LeftUpLeg 10.795747 5.387072 6.276217
LeftLeg 9.325474 -0.000000 -0.000000
LeftFoot -13.269140 -1.578418 -17.843087
LeftToeBase 1.199563 -0.000000 -0.000000
RightUpLeg 16.643742 -13.900296 -11.161872
RightLeg 2.031618 -0.000000 -0.000000
RightFoot -10.434316 -0.923056 20.284898
RightToeBase 8.275597 -0.000000 -0.000000
1570
root 4.669996 36.021464 -1.702621 331.594114 -86.742741 -338.129051
Spine 10.859254 3.727827 -5.454672
Head 10.919562 17.591258 0.483672
LeftShoulder -8.842325 10.977690 23.939159
LeftArm 13.899784 -32.516642 -36.799478
LeftForeArm 20.926949 -0.000000 23.813810
LeftHand -11.673464 -0.000000 -15.250966
LeftHandThumb1 -26.253704 0.000000 33.147579
RightShoulder -25.429353 -40.743366 -7.051702
RightArm 51.112581 39.273469 57.242764
RightForeArm 7.276539 -0.000000 13.256550
RightHand -2.630576 -0.000000 6.553904
RightHandThumb1 -24.326973 -0.000000 -32.862282
LeftUpLeg 10.700165 5.032855 6.320560
LeftLeg 9.282893 -0.000000 -0.000000
LeftFoot -13.417060 -1.540425 -18.129714
LeftToeBase -0.440286 -0.000000 0.000000
RightUpLeg 16.684494 -14.117857 -11.043580
RightLeg 1.941581 -0.000000 -0.000000
RightFoot -10.696642 -1.037524 20.087017
RightToeBase 8.501013 -0.000000 -0.000000
1571
root 4.694787 36.007809 -1.785371 332.385238 -86.505743 -338.897497
Spine 10.887015 3.628464 -5.476459
Head 10.806124 17.549145 0.519222
LeftShoulder -8.746026 10.848391 24.135680
LeftArm 14.014162 -32.897516 -36.435980
LeftForeArm 20.881849 -0.000000 23.099332
LeftHand -11.755395 0.000000 -15.097439
LeftHandThumb1 -26.253704 0.000000 33.147579
RightShoulder -25.428194 -40.672413 -7.251625
RightArm 51.045827 39.807101 57.033187
RightForeArm 7.323543 -0.000000 13.039010
RightHand -2.533665 -0.000000 6.429778
RightHandThumb1 -24.326973 -0.000000 -32.862282
LeftUpLeg 10.620470 4.731913 6.363834
LeftLeg 9.249465 -0.000000 -0.000000
LeftFoot -13.585154 -1.559589 -18.414737
LeftToeBase -2.399198 -0.000000 0.000000
RightUpLeg 16.743192 -14.303661 -10.944296
RightLeg 1.841402 -0.000000 -0.000000
RightFoot -10.933387 -1.141311 19.890821
RightToeBase 8.613407 -0.000000 -0.000000
1572
root 4.721208 35.994107 -1.864160 332.922073 -86.262706 -339.382426
Spine 10.883371 3.548146 -5.513431
Head 10.702407 17.502146 0.566976
LeftShoulder -8.624424 10.652331 24.368080
LeftArm 14.101427 -33.306073 -36.146695
LeftForeArm 20.893100 0.000000 22.403431
LeftHand -11.872528 -0.000000 -14.832941
LeftHandThumb1 -26.253704 0.000000 33.147579
RightShoulder -25.487360 -40.610477 -7.373397
RightArm 51.024529 40.362629 56.835538
RightForeArm 7.367284 -0.000000 12.811208
RightHand -2.647678 -0.000000 6.259665
RightHandThumb1 -24.326973 -0.000000 -32.862282
LeftUpLeg 10.496763 4.397626 6.380804
LeftLeg 9.241719 -0.000000 -0.000000
LeftFoot -13.754203 -1.590649 -18.735645
LeftToeBase -4.707147 -0.000000 0.000000
RightUpLeg 16.775633 -14.408742 -10.834233
RightLeg 1.714290 -0.000000 -0.000000
RightFoot -11.203994 -1.308161 19.764791
RightToeBase 8.837256 -0.000000 -0.000000
